<svg width="30" height="30" viewBox="0 0 30 30" fill="none" xmlns="http://www.w3.org/2000/svg">
<path d="M9.99837 20.3136H10.9833L17.7398 13.5571L16.7548 12.5722L9.99837 19.3286V20.3136ZM8.61597 21.696V18.7584L17.7398 9.65183C17.878 9.52511 18.0307 9.42719 18.1977 9.35807C18.3648 9.28895 18.5404 9.25439 18.7248 9.25439C18.9091 9.25439 19.0876 9.28895 19.2604 9.35807C19.4332 9.42719 19.583 9.53087 19.7097 9.66911L20.6601 10.6368C20.7984 10.7635 20.8992 10.9133 20.9625 11.0861C21.0259 11.2589 21.0576 11.4317 21.0576 11.6045C21.0576 11.7888 21.0259 11.9645 20.9625 12.1315C20.8992 12.2986 20.7984 12.4512 20.6601 12.5894L11.5536 21.696H8.61597ZM17.2387 13.0733L16.7548 12.5722L17.7398 13.5571L17.2387 13.0733Z" fill="#667085"/>
</svg>
