<svg width="30" height="27" viewBox="0 0 30 27" fill="none" xmlns="http://www.w3.org/2000/svg">
<g clip-path="url(#clip0_1_1579)">
<path fill-rule="evenodd" clip-rule="evenodd" d="M27.7161 7.83915C27.4697 7.69864 27.2045 7.58539 26.9206 7.50151C26.8224 7.47215 26.7243 7.44908 26.6283 7.42811C24.8597 7.0632 23.1329 8.19147 22.6903 9.94888C22.6527 10.0936 22.6151 10.2404 22.5713 10.3851C22.4648 10.7521 22.3416 11.1107 22.2059 11.4609C19.8986 17.3623 13.4467 20.6255 7.26831 18.8177C7.00522 18.7401 6.74633 18.6542 6.49368 18.5619C6.00509 18.3836 5.5332 18.176 5.0801 17.9432C3.55378 17.1589 1.67039 17.6119 0.720351 19.0442C0.515727 19.3525 0.354951 19.6944 0.246375 20.0676C0.235935 20.1012 0.227583 20.1348 0.219231 20.1683C-0.179576 21.6992 0.565839 23.2973 1.96897 24.0208C2.54318 24.3165 3.13824 24.5849 3.75003 24.8261C4.2762 25.0316 4.81491 25.2162 5.36823 25.3776C15.1317 28.2361 25.3358 22.9282 28.735 13.4469C28.8708 13.0694 28.994 12.6878 29.1067 12.2977C29.1714 12.0754 29.232 11.8531 29.2884 11.6308C29.66 10.1544 29.0378 8.58993 27.7203 7.83705L27.7161 7.83915Z" fill="#00D8FF"/>
<path fill-rule="evenodd" clip-rule="evenodd" d="M18.5164 4.47115C18.4287 2.68858 17.6477 1.33591 16.0254 0.568354C14.5325 -0.138386 13.0709 0.0168063 11.7178 0.964718C10.726 1.66097 10.2186 2.68019 9.95974 3.84201C9.88248 4.19433 9.84907 4.55294 9.82193 4.91156C9.79478 4.91156 9.78643 4.91156 9.78226 4.90946C9.74676 4.878 9.70918 4.84864 9.67368 4.81718C8.49605 3.79168 7.1639 3.31143 5.60417 3.67424C2.46799 4.40405 1.1797 8.09084 3.18 10.6074C3.89619 11.5092 4.82743 12.1404 5.8422 12.6521C6.86323 13.168 7.92602 13.5791 9.01387 13.9293C10.25 14.3278 11.5007 14.6696 12.7744 14.9234C13.5407 15.0765 14.2193 14.8583 14.8018 14.3341C15.1192 14.0488 15.305 13.6714 15.5075 13.3065C16.5515 11.4211 17.4932 9.48754 18.1008 7.40927C18.3806 6.45087 18.5665 5.47779 18.5184 4.47115H18.5164Z" fill="#2500FF"/>
</g>
<defs>
<clipPath id="clip0_1_1579">
<rect width="29.4408" height="26.2144" fill="white"/>
</clipPath>
</defs>
</svg>
